<svg width="279" height="279" viewBox="0 0 279 279" fill="none" xmlns="http://www.w3.org/2000/svg">
<path d="M242.478 178.523L233.432 80.75C232.882 74.8753 230.104 69.4339 225.668 65.5425C221.232 61.6511 215.475 59.6051 209.578 59.8243C203.681 60.0435 198.092 62.5114 193.957 66.7213C189.823 70.9312 187.456 76.5639 187.344 82.4633L186.629 96.025C170.585 69.8845 137.909 16.7948 137.518 16.1605C135.917 13.5108 133.799 11.2097 131.292 9.39374C128.784 7.5778 125.937 6.28404 122.92 5.58922C119.977 4.89514 116.925 4.79891 113.944 5.30624C110.963 5.81356 108.115 6.91411 105.568 8.54264C101.118 11.3819 97.7672 15.6514 96.0675 20.6484L90.2799 11.1757C88.6787 8.52615 86.5616 6.22518 84.0543 4.40926C81.5469 2.59334 78.7003 1.29945 75.6833 0.604358C72.7395 -0.0906263 69.6862 -0.187318 66.7043 0.320019C63.7225 0.827356 60.8729 1.92839 58.3247 3.55778C53.126 6.94536 49.4536 12.2268 48.0882 18.2793C46.7229 24.3318 47.7723 30.6782 51.0134 35.9692L54.3116 41.366C49.0646 40.696 43.7489 41.8894 39.292 44.7379C34.0933 48.1255 30.4209 53.4069 29.0555 59.4594C27.6902 65.5119 28.7396 71.8583 31.9807 77.1493L43.2616 95.6109C38.0144 94.9341 32.6964 96.128 28.2421 98.9828C23.0426 102.37 19.3693 107.651 18.0032 113.703C16.637 119.756 17.6857 126.103 20.9264 131.394L81.6671 230.862C98.4785 258.37 129.764 279 162.698 279C175.66 278.999 188.416 275.752 199.8 269.556C199.892 269.505 199.983 269.453 200.073 269.396L207.127 264.911C224.621 253.784 234.999 241.196 240.771 224.103C244.998 211.599 244.434 200.201 243.418 188.658C242.938 183.167 242.478 178.523 242.478 178.523ZM232.512 221.313C227.417 236.39 218.146 247.565 202.447 257.552L195.53 261.951C155.607 283.335 110.084 260.647 89.1071 226.314L28.3707 126.85C26.3108 123.511 25.6339 119.501 26.4838 115.672C27.3337 111.842 29.6435 108.495 32.9224 106.341C36.1865 104.363 40.1002 103.755 43.8109 104.649C47.5216 105.543 50.7286 107.867 52.7333 111.115L91.3677 174.346C91.9837 175.318 92.9535 176.013 94.0722 176.283C95.1908 176.553 96.3707 176.377 97.3624 175.794C97.851 175.495 98.2759 175.103 98.613 174.64C98.95 174.177 99.1926 173.653 99.3268 173.096C99.461 172.539 99.4843 171.962 99.3952 171.396C99.3061 170.831 99.1065 170.288 98.8077 169.8L39.4207 72.6025C37.36 69.2645 36.6824 65.2546 37.5319 61.425C38.3815 57.5953 40.6912 54.2479 43.9701 52.0942C47.2369 50.1111 51.156 49.5019 54.8708 50.3996C58.5855 51.2974 61.7937 53.6291 63.7941 56.8851L123.192 154.097C123.81 155.067 124.78 155.76 125.897 156.03C127.015 156.3 128.194 156.127 129.187 155.547C129.675 155.248 130.1 154.856 130.437 154.393C130.774 153.931 131.017 153.406 131.151 152.849C131.285 152.293 131.309 151.715 131.22 151.149C131.13 150.584 130.931 150.041 130.632 149.553L58.4555 31.4246C56.3942 28.0864 55.7162 24.076 56.5658 20.2458C57.4153 16.4157 59.7254 13.0679 63.005 10.9141C66.2747 8.92758 70.1987 8.31842 73.9168 9.22016C77.635 10.1219 80.8438 12.461 82.8399 15.7246L155.014 133.853C155.631 134.824 156.601 135.518 157.719 135.788C158.837 136.058 160.017 135.883 161.009 135.3C161.996 134.697 162.702 133.727 162.974 132.603C163.245 131.479 163.059 130.293 162.456 129.306L105.694 36.4051C103.632 33.0671 102.954 29.0567 103.805 25.2267C104.655 21.3967 106.965 18.0494 110.246 15.8968C111.817 14.8925 113.574 14.2144 115.413 13.9029C117.252 13.5914 119.134 13.6527 120.949 14.0833C122.839 14.5205 124.622 15.3331 126.192 16.4729C127.762 17.6127 129.086 19.0563 130.087 20.7182C130.562 21.4919 177.866 98.3485 186.525 112.538C187.01 113.332 187.737 113.95 188.598 114.302C189.46 114.654 190.412 114.72 191.315 114.492C192.217 114.264 193.023 113.753 193.614 113.033C194.205 112.314 194.55 111.425 194.599 110.496L196.055 82.8316C196.08 79.1365 197.526 75.5926 200.094 72.9352C202.661 70.2778 206.154 68.7108 209.846 68.5594C213.539 68.408 217.148 69.6838 219.925 72.122C222.702 74.5603 224.433 77.9739 224.76 81.6546C224.76 81.6546 234.254 183.967 234.733 189.419C235.699 200.406 236.2 210.393 232.512 221.313ZM36.2554 240.041C26.3631 236.73 18.0424 226.194 13.5518 217.434C8.30753 207.245 7.28256 195.402 10.6983 184.464C11.051 183.363 10.9517 182.167 10.4223 181.139C9.89285 180.111 8.97669 179.335 7.87532 178.982C6.77395 178.63 5.5776 178.729 4.54944 179.258C3.52128 179.788 2.74554 180.704 2.39287 181.805C-1.71891 194.942 -0.497418 209.169 5.79351 221.414C8.35054 226.405 17.9138 243.099 33.4891 248.311C34.0322 248.492 34.6057 248.565 35.1769 248.525C35.7482 248.485 36.3059 248.333 36.8183 248.077C37.3308 247.822 37.7879 247.468 38.1635 247.036C38.5391 246.604 38.8259 246.102 39.0076 245.559C39.1892 245.016 39.2621 244.442 39.2221 243.871C39.1821 243.3 39.03 242.742 38.7744 242.23C38.5188 241.718 38.1649 241.261 37.7327 240.885C37.3004 240.509 36.7985 240.223 36.2554 240.041ZM47.1549 218.24C42.0322 216.527 37.6506 210.921 35.2527 206.241C32.4805 200.86 31.9363 194.605 33.7377 188.826C33.9167 188.279 33.986 187.703 33.9414 187.13C33.8968 186.557 33.7393 185.998 33.4779 185.486C33.2166 184.974 32.8565 184.519 32.4184 184.147C31.9804 183.774 31.473 183.492 30.9256 183.317C30.3781 183.141 29.8013 183.076 29.2284 183.124C28.6555 183.172 28.0978 183.334 27.5874 183.598C27.0771 183.863 26.6241 184.226 26.2546 184.666C25.8851 185.107 25.6063 185.616 25.4344 186.164C22.934 194.142 23.6732 202.782 27.4922 210.219C29.0356 213.231 34.8167 223.308 44.3886 226.51C45.486 226.863 46.6779 226.772 47.7094 226.258C48.741 225.743 49.5301 224.846 49.9082 223.757C50.2742 222.66 50.1898 221.463 49.6735 220.429C49.1573 219.394 48.2514 218.607 47.1549 218.24ZM270.054 45.0191C266.959 40.4069 255.63 25.1123 239.836 21.8995C238.703 21.6692 237.525 21.8983 236.561 22.5366C235.597 23.1749 234.925 24.17 234.695 25.303C234.465 26.4361 234.694 27.6142 235.332 28.5783C235.971 29.5424 236.966 30.2134 238.099 30.4438C248.061 32.4708 257.398 41.8128 262.815 49.8797C269.156 59.3259 271.592 70.861 269.612 82.0644C269.508 82.6276 269.516 83.2056 269.636 83.7656C269.756 84.3255 269.985 84.8564 270.31 85.3278C270.635 85.7992 271.05 86.2019 271.531 86.513C272.012 86.8241 272.549 87.0374 273.112 87.1408C273.373 87.1893 273.638 87.2134 273.904 87.2127C274.923 87.2116 275.909 86.8537 276.692 86.2011C277.474 85.5484 278.003 84.6424 278.187 83.6403C280.574 70.1993 277.658 56.3566 270.054 45.0191ZM231.928 44.7531C230.794 44.5231 229.616 44.7526 228.652 45.3913C227.687 46.03 227.016 47.0255 226.786 48.1588C226.556 49.2922 226.786 50.4705 227.425 51.4345C228.063 52.3986 229.059 53.0695 230.192 53.2996C235.33 54.3458 240.248 59.3154 243.137 63.6158C246.49 68.6077 247.779 74.7041 246.734 80.6258C246.63 81.1888 246.638 81.7668 246.758 82.3266C246.878 82.8864 247.107 83.4171 247.431 83.8885C247.756 84.3599 248.171 84.7627 248.651 85.0739C249.132 85.3851 249.669 85.5986 250.232 85.7022C250.795 85.8058 251.373 85.7975 251.933 85.6778C252.493 85.5581 253.024 85.3293 253.495 85.0044C253.967 84.6796 254.37 84.265 254.681 83.7845C254.992 83.304 255.206 82.7669 255.309 82.2039C256.76 74.0436 254.991 65.6386 250.374 58.7552C248.506 55.9718 241.65 46.7301 231.928 44.7531Z" fill="#696B83"/>
</svg>
