<svg width="342" height="342" viewBox="0 0 342 342" fill="none" xmlns="http://www.w3.org/2000/svg">
<path d="M57 114V85.5C57 77.9413 60.0027 70.6922 65.3475 65.3475C70.6922 60.0027 77.9413 57 85.5 57H114M57 228V256.5C57 264.059 60.0027 271.308 65.3475 276.653C70.6922 281.997 77.9413 285 85.5 285H114M228 57H256.5C264.059 57 271.308 60.0027 276.653 65.3475C281.997 70.6922 285 77.9413 285 85.5V114M228 285H256.5C264.059 285 271.308 281.997 276.653 276.653C281.997 271.308 285 264.059 285 256.5V228M128.25 142.5H128.393M213.75 142.5H213.893M135.375 214.463C140.019 209.723 145.562 205.958 151.679 203.387C157.796 200.817 164.365 199.493 171 199.493C177.635 199.493 184.204 200.817 190.321 203.387C196.438 205.958 201.981 209.723 206.625 214.463" stroke="#00EDF3" stroke-width="2" stroke-linecap="round" stroke-linejoin="round"/>
</svg>
